<?xml version="1.0" encoding="utf-8"?>
<!-- Generator: Adobe Illustrator 18.0.0, SVG Export Plug-In . SVG Version: 6.00 Build 0)  -->
<!DOCTYPE svg PUBLIC "-//W3C//DTD SVG 1.1//EN" "http://www.w3.org/Graphics/SVG/1.1/DTD/svg11.dtd">
<svg version="1.1" id="Layer_1" xmlns="http://www.w3.org/2000/svg" xmlns:xlink="http://www.w3.org/1999/xlink" x="0px" y="0px"
	 viewBox="0 0 479.718 475.618" enable-background="new 0 0 479.718 475.618" xml:space="preserve">
<g>
	<circle fill="#3FA9F5" stroke="#000000" stroke-width="10" stroke-miterlimit="10" cx="239.89" cy="237.793" r="227.72"/>
	<text transform="matrix(1.1536 0 0 1 138.5141 410.568)" font-family="'Modern-Regular'" font-size="387.3839">5</text>
	<g>
		<text transform="matrix(1 0 0 1 101.7511 284.2978)" font-family="'Modern-Regular'" font-size="55.0222">N</text>
		<text transform="matrix(1 0 0 1 138.7604 283.6811)" font-family="'Modern-Regular'" font-size="38.5871">o</text>
		
			<line fill="none" stroke="#000000" stroke-width="3" stroke-miterlimit="10" x1="138.453" y1="285.759" x2="155.453" y2="285.759"/>
	</g>
	<ellipse fill="none" cx="236.236" cy="244.185" rx="177.8" ry="114.86"/>
	<text transform="matrix(0.8493 -0.4781 0.4905 0.8714 98.2614 169.5024)" font-family="'Modern-Regular'" font-size="128.2511">c</text>
	<text transform="matrix(0.9365 -0.27 0.2771 0.9609 137.0856 146.9614)" font-family="'Modern-Regular'" font-size="128.2511">o</text>
	<text transform="matrix(0.9733 -0.0515 0.0528 0.9986 186.3751 131.5727)" font-family="'Modern-Regular'" font-size="128.2511">h</text>
	<text transform="matrix(0.9623 0.1546 -0.1586 0.9873 251.525 128.2554)" font-family="'Modern-Regular'" font-size="128.2511">o</text>
	<text transform="matrix(0.9115 0.3451 -0.3541 0.9352 302.8405 136.249)" font-family="'Modern-Regular'" font-size="128.2511">r</text>
	<text transform="matrix(0.8208 0.5256 -0.5393 0.8421 344.798 151.9756)" font-family="'Modern-Regular'" font-size="128.2511">t</text>
</g>
</svg>
