<?xml version="1.0" encoding="utf-8"?>
<!-- Generator: Adobe Illustrator 17.1.0, SVG Export Plug-In . SVG Version: 6.00 Build 0)  -->
<!DOCTYPE svg PUBLIC "-//W3C//DTD SVG 1.1//EN" "http://www.w3.org/Graphics/SVG/1.1/DTD/svg11.dtd">
<svg version="1.1" id="Layer_1" xmlns="http://www.w3.org/2000/svg" xmlns:xlink="http://www.w3.org/1999/xlink" x="0px" y="0px"
	 viewBox="0 0 375.657 129.801" enable-background="new 0 0 375.657 129.801" xml:space="preserve">
<g>
	<path fill="#27404D" d="M91.009,63.708c0,35.913-17.861,53.87-53.579,53.87H5.36V11.582h32.07c17.891,0,31.295,4.312,40.208,12.935
		S91.009,46.203,91.009,63.708z M82.773,63.708c0-6.976-0.694-13.209-2.083-18.699c-1.39-5.49-3.827-10.157-7.315-14
		s-8.155-6.766-14-8.768c-5.847-2.002-13.225-3.004-22.139-3.004H13.111v90.59h24.125c8.849,0,16.195-1.033,22.042-3.1
		c5.846-2.067,10.512-5.087,14-9.059c3.488-3.972,5.942-8.801,7.363-14.485C82.061,77.498,82.773,71.006,82.773,63.708z"/>
	<path fill="#27404D" d="M281.677,118.21h-8.62L262.38,89.705c-1.045-2.743-2.204-5.322-3.477-7.739
		c-1.273-2.416-2.759-4.522-4.457-6.318s-3.641-3.216-5.828-4.261s-4.751-1.567-7.69-1.567h-37.517v48.39h-7.836V10.949h48.292
		c4.506,0,8.865,0.408,13.077,1.224s7.967,2.269,11.265,4.359c3.298,2.09,5.926,4.979,7.885,8.669s2.939,8.408,2.939,14.155
		c0,3.592-0.441,6.939-1.322,10.04s-2.22,5.877-4.016,8.326c-1.796,2.449-4.081,4.539-6.857,6.269
		c-2.775,1.731-6.024,2.988-9.747,3.771c2.024,1.567,3.69,3.069,4.996,4.506c1.306,1.437,2.433,2.971,3.379,4.604
		c0.947,1.633,1.796,3.428,2.547,5.388c0.751,1.959,1.616,4.212,2.596,6.759L281.677,118.21z M203.411,61.984h37.223
		c5.29,0,9.828-0.392,13.616-1.175c3.788-0.784,6.906-2.073,9.355-3.869c2.449-1.796,4.261-4.13,5.437-7.004s1.763-6.4,1.763-10.579
		c0-7.379-2.335-12.653-7.004-15.82s-11.64-4.751-20.914-4.751h-39.476V61.984z"/>
	<path fill="#27404D" d="M370.216,18.811H332.72v99.369h-7.832V18.811h-37.104v-7.832h82.432V18.811z"/>
	<g>
		<g>
			<path fill="#97A9C2" d="M106.708,74c-5.5,0-7.75-3.751-5-8.515l33.301-57.607c2.75-4.763,7.25-4.727,10,0.036l33.301,57.552
				c2.75,4.763,0.5,8.533-5,8.533H106.708z"/>
		</g>
		<g>
			<path fill="#336699" d="M106.708,92c-5.5,0-7.75-4.001-5-8.765l33.301-57.732c2.75-4.763,7.25-4.789,10-0.026l33.301,57.771
				c2.75,4.763,0.5,8.751-5,8.751H106.708z"/>
		</g>
		<g>
			<path fill="#27404D" d="M106.708,109c-5.5,0-7.75-3.751-5-8.515l33.301-57.607c2.75-4.763,7.25-4.727,10,0.036l33.301,57.552
				c2.75,4.763,0.5,8.533-5,8.533H106.708z"/>
		</g>
		<text transform="matrix(1.1312 0 0 1 104.9033 124.9165)" fill="#336699" font-family="'Avenir-Roman'" font-size="12.471">Your Music.</text>
	</g>
</g>
</svg>
