<?xml version="1.0" encoding="utf-8"?>
<!-- Generator: Adobe Illustrator 17.1.0, SVG Export Plug-In . SVG Version: 6.00 Build 0)  -->
<!DOCTYPE svg PUBLIC "-//W3C//DTD SVG 1.1//EN" "http://www.w3.org/Graphics/SVG/1.1/DTD/svg11.dtd">
<svg version="1.1" xmlns="http://www.w3.org/2000/svg" xmlns:xlink="http://www.w3.org/1999/xlink" x="0px" y="0px"
	 viewBox="0 0 499.889 277.205" enable-background="new 0 0 499.889 277.205" xml:space="preserve">
<g id="Layer_1">
</g>
<g id="Layer_2">
	<g id="Paint_Dab">
	</g>
	<g id="Splatter">
	</g>
	<g>
		<g>
			<g>
				<path d="M285.327,69.902c58.268,0,94.88-42.083,147.677-42.083c30.547,0,55.304,24.757,55.304,55.305
					c0,30.274-24.301,54.803-54.393,55.305h-20.38l0.137-7.204c0-1.048,0.137-1.687,0.729-2.188
					c10.167-8.525,17.371-35.016-3.42-35.016c-4.377,0-8.845,1.915-11.626,4.332c-1.505,1.322-3.556,3.282-3.556,7.249v28.724
					c0,1.505,0.593,2.735,2.735,2.735h4.879l0.319,0.229v1.14H379.25v-1.14l0.319-0.229h4.742c2.143,0,2.736-1.23,2.736-2.735
					v-30.502c0-3.784-2.417-3.738-5.243-0.866l-0.501,0.183l-0.775-0.775l9.529-9.62h4.742c0.547,0,1.14,0,1.14,0.775v1.596
					c0,0.775,0.501,2.645,3.146,1.094c3.875-2.279,8.115-3.602,11.809-3.602c21.52,0,23.526,21.565,16.505,39.347
					c0,2.69,1.915,4.696,5.608,4.696c30.228,0,51.156-23.298,51.156-53.526s-20.927-53.617-51.156-53.617
					c-42.037,0-82.478,40.715-147.585,41.626c-24.347,0-46.049-15.091-48.511-39.301c-0.274-2.827-0.41-5.562-0.091-8.344
					c0.547-4.104,2.645-9.256,6.246-8.39c2.462,0.821,2.28,4.65-0.684,4.833c-1.641,0.273-3.921,0.092-4.559,3.283
					c-0.456,2.233-0.365,5.79-0.091,8.571C240.236,55.54,261.391,69.902,285.327,69.902z"/>
			</g>
			<g>
				<path d="M296.339,93.473h3.328c0.547,0,1.14,0,1.14,0.775v3.693c0,1.504,0.957,2.097,2.462,0.638
					c3.511-3.419,6.064-5.334,9.711-5.334c4.833,0,5.927,2.279,6.474,3.921c2.097,6.565-9.164,8.207-7.979,0.319
					c0.319-2.098-1.413-2.645-2.918-1.505c-4.012,2.964-6.337,4.97-6.337,10.806v27.538c0,1.505,0.593,2.735,2.736,2.735h2.006
					l0.319,0.229v1.14h-19.058v-1.14l0.319-0.229h2.052c2.143,0,2.736-1.23,2.736-2.735l0.045-30c0-3.784-2.234-3.876-5.152-1.095
					c-5.015,4.879-8.891-0.41-5.973-3.829l6.656-8.526c53.344-67.843,146.765,11.17,84.803,67.843
					c-37.341,34.149-126.293,22.614-142.16-21.064c-11.307-31.14,13.815-46.14,29.59-44.134c9.757,1.23,15.319,7.112,15.319,18.602
					v21.885c0,1.505,0.547,1.596,3.146,1.049l0.319,0.229v0.82c-2.918,1.55-6.201,2.325-8.754,2.325
					c-1.413,0-3.556-0.684-3.556-3.237v-2.006c0-1.186-1.14-1.413-1.778-0.729c-5.562,5.973-4.56,6.748-11.809,6.748
					c-15.137,0-15.274-20.699-4.195-23.8c2.599-0.729,6.155-1.413,9.757-2.462c3.784-1.095,3.83-1.095,6.246-1.961
					c4.012-1.459,4.012-3.784,4.012-6.155c0-5.607-3.328-9.21-8.617-9.894c-16.003-2.098-39.393,12.447-27.584,43.405
					c15.137,39.666,105.412,50.426,140.564,16.596c56.809-54.666-35.198-129.029-85.168-62.28l-5.79,7.432
					c-2.143,2.781,0.638,5.927,4.104,2.462L296.339,93.473z M265.929,112.714c-1.687,0.547-1.413,0.41-6.474,1.961
					c-15.274,4.65-7.112,28.45,1.642,20.745c1.869-1.642,4.65-5.335,5.243-6.292c1.368-2.188,1.368-4.97,1.368-8.07
					c0-2.052,0.046-4.696,0.046-7.295C267.753,112.987,267.889,112.076,265.929,112.714z"/>
			</g>
			<g>
				<path d="M389.069,103.821c0-2.735-2.599-3.237-4.149-1.823c-2.964,2.735-6.246,5.425-9.62,7.979
					c0.319,1.915,0.502,3.921,0.502,6.063c0,17.736-11.854,23.755-22.569,23.755c-9.164,0-19.104-4.377-21.839-16.688
					c-14.772-11.444-3.921-36.155,18.283-35.699c11.261,0,22.204,7.568,25.259,20.927c5.927-4.559,11.763-9.848,17.143-15.593h4.742
					c0.547,0,1.14,0,1.14,0.775v1.596c0,0.775,0.501,2.645,3.146,1.094c3.875-2.279,8.115-3.602,11.809-3.602
					c21.52,0,23.526,21.565,16.505,39.347c0,2.69,1.687,3.967,5.608,4.696l0.638,0.41l0.274,1.368h-20.38l0.137-7.204
					c0-1.048,0.137-1.687,0.729-2.188c10.167-8.525,17.371-35.016-3.419-35.016c-4.377,0-8.845,1.915-11.626,4.332
					c-1.504,1.322-3.556,3.282-3.556,7.249v28.724c0,1.505,0.593,2.735,2.736,2.735h4.878l0.319,0.229v1.14h-24.483v-1.14
					l0.319-0.229h4.742c2.143,0,2.736-1.23,2.736-2.735V103.821z M338.642,98.304c4.24-3.146,9.483-3.282,7.204-0.912
					c-3.875,3.967-6.155,10.532-6.155,18.647c0,2.736,0.137,5.426,0.456,7.934c7.432,0.137,16.869-3.602,26.581-9.848
					c-0.228-15.411-3.511-25.351-17.188-25.351c-22.888,0-28.861,23.572-18.557,32.098c-0.228-1.504-0.319-3.1-0.319-4.833
					C330.664,107.149,333.992,102.043,338.642,98.304z M353.232,138.381c11.17,0,13.541-10.714,13.541-22.341v-0.182
					c-9.119,5.699-18.602,9.711-26.353,9.711C341.743,132.956,345.254,138.381,353.232,138.381z"/>
			</g>
		</g>
		<g>
			<g>
				<path d="M267.393,180.417c-2.507-23.752-23.615-38.614-47.55-38.614c-51.151,0-94.872,42.535-147.665,42.535
					c-30.545,0-55.3-24.755-55.3-55.3s24.755-55.3,55.3-55.3h12.856c2.69,0.046,4.194,0.593,5.334,2.918l18.464,37.201
					c0.912,1.869,2.553,1.504,3.282,0.046l19.968-40.164h15.683v1.14l-0.319,0.228h-1.459c-3.875,0-4.331,2.553-4.331,5.653v53.568
					c0,1.504,0.593,2.735,2.735,2.735h5.425l0.319,0.228v1.14h-25.758v-1.14l0.319-0.228h5.334c2.143,0,2.735-1.231,2.735-2.735
					V81.214c0-2.188-1.778-2.462-2.507-0.957l-22.157,44.495h-2.325c-0.821,0-1.459-0.137-1.915-1.003L82.117,80.211
					c-0.775-1.641-2.872-1.185-2.872,1.049v53.066c0,1.504,0.593,2.735,2.735,2.735h5.38l0.319,0.228v1.14H69.671v-1.14l0.319-0.228
					h5.243c2.143,0,2.735-1.231,2.735-2.735V80.758c0-2.188,0.046-5.653-3.419-5.653h-2.371c-30.226,0-51.151,23.707-51.151,53.932
					s20.926,53.613,51.151,53.613c42.034,0,93.732-42.034,147.391-42.034c24.345,0,46.137,15.5,48.69,39.708
					c0.274,2.827,0.41,5.608,0.091,8.343c-0.319,4.194-2.371,9.348-5.972,8.482c-2.553-0.686-2.371-4.424,0.41-4.789
					c1.732-0.319,4.285-0.137,4.605-3.419C267.62,186.298,267.666,183.152,267.393,180.417z"/>
			</g>
			<g>
				<path d="M182.538,138.429c-1.413,0-3.556-0.684-3.556-3.237c0-0.866,0-0.957,0-2.006c0-1.185-1.14-1.413-1.778-0.729
					c-5.562,5.972-4.559,6.747-11.808,6.747c-15.136,0-15.272-20.698-4.194-23.798c2.599-0.729,6.155-1.413,9.756-2.462
					c3.784-1.094,3.83-1.094,6.246-1.96c4.012-1.459,4.012-3.784,4.012-6.155c0-5.608-3.282-9.893-8.616-9.893
					c-5.425,0-8.616,3.784-7.933,7.021c0.319,1.504,1.869,2.735,1.778,4.605c-0.274,4.65-6.656,5.334-8.206,1.003
					c-2.462-6.838,6.109-13.905,14.27-14.042c9.847-0.182,15.318,7.112,15.318,18.601v21.883c0,1.504,0.547,1.596,3.146,1.049
					l0.319,0.228v0.821C188.373,137.654,185.091,138.429,182.538,138.429z M177.295,112.716c-1.687,0.547-1.413,0.41-6.474,1.96
					c-15.273,4.65-7.112,28.448,1.641,20.743c1.869-1.641,4.65-5.334,5.243-6.291c1.368-2.188,1.368-4.969,1.368-8.069
					c0-2.052,0.046-4.696,0.046-7.294C179.119,112.99,179.256,112.078,177.295,112.716z"/>
				<path d="M229.404,102.641c-0.638-4.787-8.252-9.665-13.677-8.753c-7.203,1.277-11.534,10.85-11.534,22.384v0.137
					c0,22.476,15.409,28.858,26.715,13.677l0.821,0.638c-4.377,5.197-7.978,9.483-16.002,9.483c-9.3,0-21.29-7.613-21.29-23.935
					c0-16.184,11.99-23.798,21.29-23.798c5.516,0,8.662,2.325,11.534,4.696c1.641,1.368,2.097-1.55,2.69-3.556h0.729l0.228,0.319
					v12.811l-0.182,0.319h-0.729L229.404,102.641z"/>
			</g>
		</g>
		<g>
			<path d="M97.932,18.974c-1.881,0-2.086,0.616-2.462,2.291l-0.923,4.411h-0.547l-0.171-0.239l0.855-8.31l0.171-0.239h0.308
				c0.239,0.411,0.752,1.061,2.77,1.061h37.82c2.017,0,2.53-0.649,2.77-1.061h0.308L139,17.128l0.855,8.31l-0.171,0.239h-0.547
				l-0.923-4.411c-0.376-1.675-0.581-2.291-2.462-2.291h-13.268c-1.607,0-2.052,0.924-2.052,2.052v42.368
				c0,1.128,0.444,2.052,2.052,2.052h4.069l0.239,0.171v0.854h-19.32v-0.854l0.239-0.171h4.001c1.607,0,2.052-0.924,2.052-2.052
				c0,0,0-41.308,0-42.368c0-1.128-0.445-2.052-2.052-2.052H97.932z"/>
			<path d="M156.367,16.307c0.41-0.103,0.855,0,0.855,0.581V34.67c0,0.855,0.65,1.812,2.359,0.821
				c2.907-1.676,6.087-2.701,8.856-2.701c8.002,0,12.379,3.795,12.379,9.506v21.099c0,1.128,0.445,2.052,2.052,2.052h3.659
				l0.239,0.171v0.854h-18.363v-0.854l0.24-0.171h3.488c1.607,0,2.018-0.924,2.018-2.052V39.424c0-4.069-1.915-5.506-5.642-5.574
				c-3.283-0.068-6.634,1.437-8.72,3.249c-1.128,0.991-2.565,2.496-2.565,5.471v20.825c0,1.128,0.445,2.052,2.052,2.052h4.069
				l0.24,0.171v0.854h-19.32v-0.854l0.24-0.171h4.001c1.607,0,2.052-0.924,2.052-2.052V21.163c0-1.128-0.445-2.052-2.052-2.052
				h-2.667l-0.239-0.171v-0.854C149.63,17.676,152.845,17.265,156.367,16.307z"/>
			<path d="M218.393,59.462l0.615,0.479c-3.283,3.898-6.873,7.01-12.002,7.112c-7.728,0.171-15.559-4.138-15.559-17.439
				c0-11.011,7.42-16.823,15.456-16.823c13.781,0,15.969,13.233,8.617,17.474c-4.514,2.599-13.404,4.616-17.132,5.505
				c0.479,6.019,2.291,10.225,8.617,10.225C210.665,65.993,214.836,64.044,218.393,59.462z M198.32,54.709
				c3.146-0.787,8.309-1.983,10.156-2.976c6.018-3.214,7.557-17.884-1.573-17.884c-8.378,0-8.686,7.044-8.686,15.764
				C198.218,51.391,198.218,53.033,198.32,54.709z"/>
		</g>
		<g>
			<path d="M327.686,197.728c-0.318-0.533-0.337-1.228-0.056-1.784c-10.81-13.797-27.996-15.356-37.329-13.077
				c-10.606,2.584-25.03,10.853-25.03,29.421c0,8.343,4.435,16.464,8.947,19.196c3.433,2.067,5.246,1.735,4.165-0.111
				c-2.004-3.95-3.277-10.004-3.277-19.085c0-22.555,8.022-26.505,15.195-28.314c8.875-2.246,24.11-0.953,32.288,16.527
				c1.688-0.148,3.362-0.401,5.039-0.643C327.176,199.239,327.221,198.327,327.686,197.728z"/>
			<path d="M306.385,194.236c-3.433-2.067-5.245-1.735-4.165,0.111c2.006,3.95,3.278,10.004,3.278,19.085
				c0,6.128-0.347,19.085-3.201,25.139c-12.535,26.542-89.941,36.767-89.941-8.417c0-12.071,6.209-22.26,17.51-24.475v0.071
				c0.129-0.046,0.276-0.071,0.434-0.084c-0.096-0.268-0.098-0.557-0.053-0.839l-0.002-0.01c-0.137-0.012-0.262-0.036-0.379-0.074
				v0.013c-12.65,2.104-22.254,12.699-22.254,25.398c0,50.389,107.721,39.462,107.721-16.723
				C315.333,205.089,310.897,196.968,306.385,194.236z"/>
			<g>
				<path d="M213.2,180.597h0.547l0.171,0.239v12.447l-0.137,0.239h-0.547l-0.376-4.993c-0.137-1.948-1.094-3.761-2.428-4.924
					c-5.232-4.377-13.268-4.104-17.2,0.685c-3.967,4.821-2.188,9.198,5.882,13.165c2.188,1.06,5.881,2.804,9.164,4.343
					c8.823,4.103,12.584,9.984,9.985,18.499c-2.154,7.078-9.096,10.601-16.038,10.635c-5.779-0.034-11.9-3.352-14.362-8.275
					c-1.333-2.667-1.505-5.026-1.026-6.429c1.163-3.557,4.582-3.316,5.745-1.812c1.06,1.368,0.752,3.933-2.257,4.445
					c-2.257,0.376-2.394,2.052-1.812,3.181c2.428,4.753,8.036,7.898,13.712,7.933c6.805-0.034,12.96-3.795,13.712-10.121
					c0.274-2.394-1.128-4.445-4.753-6.087c-3.796-1.812-13.815-6.771-17.576-8.686c-6.942-3.42-9.746-13.507-2.154-21.646
					c4.992-5.061,13.883-5.095,19.662-0.581C212.379,183.846,212.755,182.102,213.2,180.597z"/>
				<path d="M235.15,178.956c0.41-0.103,0.855,0,0.855,0.581v17.781c0,0.855,0.65,1.812,2.359,0.821
					c2.907-1.676,6.087-2.701,8.856-2.701c8.002,0,12.379,3.795,12.379,9.506v21.099c0,1.128,0.445,2.052,2.052,2.052h3.659
					l0.239,0.171v0.854h-18.363v-0.854l0.24-0.171h3.488c1.607,0,2.018-0.924,2.018-2.052v-23.971c0-4.069-1.915-5.506-5.642-5.574
					c-3.283-0.068-6.634,1.437-8.72,3.249c-1.128,0.991-2.565,2.496-2.565,5.471v20.825c0,1.128,0.445,2.052,2.052,2.052h4.069
					l0.24,0.171v0.854h-19.32v-0.854l0.24-0.171h4.001c1.607,0,2.052-0.924,2.052-2.052v-42.231c0-1.128-0.445-2.052-2.052-2.052
					h-2.667l-0.239-0.171v-0.854C228.413,180.324,231.628,179.914,235.15,178.956z"/>
			</g>
			<g>
				<path d="M353.617,206.417c-1.06-8.24-9.129-12.617-16.31-10.36c-2.906,0.923-5.437,2.77-7.385,5.095
					c-0.821,0.992-2.052,0.957-2.052-0.957v-4.171c0-0.581-0.444-0.684-0.855-0.581c-2.114,0.574-3.74,0.944-5.556,1.242
					c0.576,0.59,0.688,1.534,0.35,2.282c0.034,0.063,0.095,0.109,0.122,0.177c0.243,0.315,0.401,0.688,0.401,1.155v40.928
					c0,1.128-0.444,2.052-2.052,2.052h-4l-0.239,0.171v0.855h19.319v-0.855l-0.239-0.171h-4.069c-1.607,0-2.052-0.923-2.052-2.052
					v-13.916c4.889-1.949,13.438-5.129,17.267-7.249C351.224,217.325,354.301,211.922,353.617,206.417z M337.512,222.83
					l-8.514,3.317V206.93c0-3.966,3.829-8.172,8.411-9.608c5.608-1.778,8.309,2.633,8.309,9.163
					C345.719,213.153,343.052,220.676,337.512,222.83z"/>
				<path d="M363.328,200.297c0-1.128-0.444-2.052-2.052-2.052h-2.667l-0.239-0.171v-0.855c4.035-0.41,6.12-0.821,9.642-1.778
					c0.41-0.103,0.855,0,0.855,0.581v4.171c0,1.915,1.231,1.949,2.052,0.957c1.949-2.325,4.479-4.171,7.385-5.095
					c7.18-2.257,15.25,2.12,16.31,10.36c0.684,5.505-2.393,10.907-7.351,13.643c-3.829,2.12-12.378,5.3-17.267,7.249v13.916
					c0,1.128,0.444,2.052,2.052,2.052h4.069l0.239,0.171v0.855h-19.319v-0.855l0.239-0.171h4c1.607,0,2.052-0.923,2.052-2.052
					V200.297z M369.995,226.146l8.514-3.317c5.539-2.154,8.206-9.676,8.206-16.344c0-6.531-2.701-10.941-8.309-9.163
					c-4.582,1.436-8.411,5.642-8.411,9.608V226.146z"/>
				<path d="M426.686,222.112l0.615,0.479c-3.282,3.898-6.873,7.009-12.001,7.112c-7.727,0.171-15.557-4.137-15.557-17.438
					c0-11.01,7.42-16.823,15.455-16.823c13.779,0,15.968,13.232,8.616,17.472c-4.513,2.599-13.403,4.616-17.13,5.505
					c0.479,6.018,2.291,10.223,8.616,10.223C418.958,228.642,423.13,226.693,426.686,222.112z M406.615,217.359
					c3.146-0.786,8.309-1.983,10.155-2.975c6.018-3.214,7.556-17.883-1.573-17.883c-8.377,0-8.685,7.044-8.685,15.763
					C406.512,214.042,406.512,215.684,406.615,217.359z"/>
			</g>
		</g>
	</g>
</g>
</svg>
