<?xml version="1.0" encoding="utf-8"?>
<!-- Generator: Adobe Illustrator 18.0.0, SVG Export Plug-In . SVG Version: 6.00 Build 0)  -->
<!DOCTYPE svg PUBLIC "-//W3C//DTD SVG 1.1//EN" "http://www.w3.org/Graphics/SVG/1.1/DTD/svg11.dtd">
<svg version="1.1" id="Layer_1" xmlns="http://www.w3.org/2000/svg" xmlns:xlink="http://www.w3.org/1999/xlink" x="0px" y="0px"
	 viewBox="0 0 739.985 96.563" enable-background="new 0 0 739.985 96.563" xml:space="preserve">
<circle fill="#3FA9F5" stroke="#000000" stroke-width="10" stroke-miterlimit="10" cx="-242.064" cy="310.698" r="131.06"/>
<circle fill="#3FA9F5" stroke="#000000" stroke-width="10" stroke-miterlimit="10" cx="1994.423" cy="546.534" r="227.72"/>
<text transform="matrix(1.1536 0 0 1 -313.4493 400.4302)" font-family="'Modern-Regular'" font-size="269.6138">5</text>
<circle fill="none" stroke="#666666" stroke-width="10" stroke-miterlimit="10" cx="299.936" cy="317.698" r="131.06"/>
<text transform="matrix(1.1536 0 0 1 228.5507 407.4302)" fill="#666666" font-family="'Modern-Regular'" font-size="269.6138">5</text>
<g>
	<g>
		<text transform="matrix(1 0 0 1 -473.2316 625.3243)" font-family="'Modern-Regular'" font-size="125">Cohort N</text>
		<text transform="matrix(1 0 0 1 -20.1526 621.9229)" font-family="'Modern-Regular'" font-size="87.6625">o</text>
	</g>
	<line fill="none" stroke="#000000" stroke-width="3" stroke-miterlimit="10" x1="-20.015" y1="625.5" x2="18.985" y2="625.5"/>
</g>
<text transform="matrix(1.1536 0 0 1 1893.0464 719.3087)" font-family="'Modern-Regular'" font-size="387.3839">5</text>
<g>
	<text transform="matrix(1 0 0 1 1856.2834 593.0386)" font-family="'Modern-Regular'" font-size="55.0222">N</text>
	<text transform="matrix(1 0 0 1 1893.2927 592.4219)" font-family="'Modern-Regular'" font-size="38.5871">o</text>
	<line fill="none" stroke="#000000" stroke-width="3" stroke-miterlimit="10" x1="1892.985" y1="594.5" x2="1909.985" y2="594.5"/>
</g>
<g>
	<g>
		<circle fill="#3FA9F5" stroke="#000000" stroke-width="10" stroke-miterlimit="10" cx="703.979" cy="829.863" r="131.06"/>
		<text transform="matrix(1.1536 0 0 1 632.5938 919.5952)" font-family="'Modern-Regular'" font-size="269.6138">5</text>
	</g>
	<g>
		<g>
			<text transform="matrix(1 0 0 1 457.9851 685.3129)" font-family="'Modern-Regular'" font-size="125">Cohort N</text>
			<text transform="matrix(1 0 0 1 911.0641 681.9116)" font-family="'Modern-Regular'" font-size="87.6625">o</text>
		</g>
		<line fill="none" stroke="#000000" stroke-width="3" stroke-miterlimit="10" x1="910.985" y1="685.5" x2="949.985" y2="685.5"/>
	</g>
</g>
<circle fill="#3FA9F5" stroke="#000000" stroke-width="10" stroke-miterlimit="10" cx="160.979" cy="942.863" r="131.06"/>
<text transform="matrix(1.1536 0 0 1 103.7637 992.5859)" font-family="'RosarioItalic'" font-size="269.6138">5</text>
<g>
	<g>
		<text transform="matrix(1 0 0 1 -85.0149 798.3129)" font-family="'Modern-Regular'" font-size="125">Cohort N</text>
		<text transform="matrix(1 0 0 1 368.0641 794.9116)" font-family="'Modern-Regular'" font-size="87.6625">o</text>
	</g>
	<line fill="none" stroke="#000000" stroke-width="3" stroke-miterlimit="10" x1="367.985" y1="798.5" x2="406.985" y2="798.5"/>
</g>
<text transform="matrix(1 0 0 1 168.7458 -29.5105)" font-family="'Modern-Regular'" font-size="100">Our Team</text>
<text transform="matrix(1 0 0 1 139.6188 78.8512)" font-family="'Modern-Regular'" font-size="100">Our Clients</text>
<text transform="matrix(1 0 0 1 3.634 -154.7478)" fill="#FFFFFF" font-family="'Modern-Regular'" font-size="100">Web Development</text>
<ellipse fill="none" cx="1990.768" cy="552.926" rx="177.8" ry="114.86"/>
<text transform="matrix(0.8493 -0.4781 0.4905 0.8714 1852.7937 478.2431)" font-family="'Modern-Regular'" font-size="128.2511">c</text>
<text transform="matrix(0.9365 -0.27 0.2771 0.9609 1891.6179 455.7021)" font-family="'Modern-Regular'" font-size="128.2511">o</text>
<text transform="matrix(0.9733 -0.0515 0.0528 0.9986 1940.9075 440.3134)" font-family="'Modern-Regular'" font-size="128.2511">h</text>
<text transform="matrix(0.9623 0.1546 -0.1586 0.9873 2006.0574 436.9961)" font-family="'Modern-Regular'" font-size="128.2511">o</text>
<text transform="matrix(0.9115 0.3451 -0.3541 0.9352 2057.3728 444.9897)" font-family="'Modern-Regular'" font-size="128.2511">r</text>
<text transform="matrix(0.8208 0.5256 -0.5393 0.8421 2099.3303 460.7163)" font-family="'Modern-Regular'" font-size="128.2511">t</text>
<g>
	<g>
		<circle fill="#3FA9F5" stroke="#FFFFFF" stroke-width="10" stroke-miterlimit="10" cx="2222.423" cy="82.534" r="227.72"/>
	</g>
	<text transform="matrix(1.1536 0 0 1 2121.0464 255.3087)" fill="#FFFFFF" font-family="'Modern-Regular'" font-size="387.3839">5</text>
	<text transform="matrix(1 0 0 1 2084.2834 129.0385)" fill="#FFFFFF" font-family="'Modern-Regular'" font-size="55.0222">N</text>
	<text transform="matrix(1 0 0 1 2121.2927 128.4218)" fill="#FFFFFF" font-family="'Modern-Regular'" font-size="38.5871">o</text>
	
		<line fill="#FFFFFF" stroke="#FFFFFF" stroke-width="3" stroke-miterlimit="10" x1="2120.985" y1="130.5" x2="2137.985" y2="130.5"/>
	<ellipse fill="none" cx="2218.768" cy="88.926" rx="177.8" ry="114.86"/>
	
		<text transform="matrix(0.8493 -0.4781 0.4905 0.8714 2080.7937 14.2431)" fill="#FFFFFF" font-family="'Modern-Regular'" font-size="128.2511">c</text>
	
		<text transform="matrix(0.9365 -0.27 0.2771 0.9609 2119.6179 -8.2979)" fill="#FFFFFF" font-family="'Modern-Regular'" font-size="128.2511">o</text>
	
		<text transform="matrix(0.9733 -0.0515 0.0528 0.9986 2168.9075 -23.6866)" fill="#FFFFFF" font-family="'Modern-Regular'" font-size="128.2511">h</text>
	
		<text transform="matrix(0.9623 0.1546 -0.1586 0.9873 2234.0574 -27.0039)" fill="#FFFFFF" font-family="'Modern-Regular'" font-size="128.2511">o</text>
	
		<text transform="matrix(0.9115 0.3451 -0.3541 0.9352 2285.3728 -19.0103)" fill="#FFFFFF" font-family="'Modern-Regular'" font-size="128.2511">r</text>
	
		<text transform="matrix(0.8208 0.5256 -0.5393 0.8421 2327.3303 -3.2837)" fill="#FFFFFF" font-family="'Modern-Regular'" font-size="128.2511">t</text>
</g>
<circle fill="#FFFFFF" stroke="#000000" stroke-width="10" stroke-miterlimit="10" cx="1689.423" cy="88.534" r="263.304"/>
<circle fill="#3FA9F5" cx="1688.985" cy="88.926" r="154.462"/>
<g>
	<path fill="#FFFFFF" d="M1549.438,103.268h6.107V65.633h-6.107v-0.771h11.775l18.598,29.987h0.109V65.633h-6.107v-0.771h13.041
		v0.771h-6.107v39.176h-1.101l-23.165-36.92h-0.109v35.379h6.107v0.771h-13.041V103.268z"/>
</g>
<g>
	<path fill="#FFFFFF" d="M1584.813,95.164c0-1.26,0.276-2.431,0.83-3.511c0.553-1.081,1.26-2.013,2.122-2.797
		c0.861-0.785,1.826-1.396,2.895-1.833c1.066-0.437,2.115-0.656,3.145-0.656c1.028,0,2.077,0.219,3.145,0.656
		c1.067,0.438,2.032,1.048,2.895,1.833c0.861,0.785,1.568,1.717,2.122,2.797c0.553,1.081,0.829,2.251,0.829,3.511
		c0,1.209-0.257,2.348-0.771,3.415c-0.515,1.068-1.19,2-2.025,2.798c-0.837,0.797-1.795,1.428-2.875,1.891s-2.187,0.694-3.318,0.694
		c-1.133,0-2.238-0.231-3.318-0.694c-1.081-0.463-2.039-1.093-2.875-1.891s-1.512-1.73-2.025-2.798
		C1585.07,97.512,1584.813,96.374,1584.813,95.164z M1588.673,95.164c0,1.827,0.141,3.28,0.424,4.36
		c0.283,1.081,0.656,1.91,1.119,2.489c0.463,0.579,1.004,0.958,1.621,1.138c0.617,0.18,1.273,0.27,1.968,0.27s1.351-0.09,1.968-0.27
		c0.617-0.18,1.157-0.56,1.621-1.138c0.463-0.579,0.835-1.409,1.119-2.489c0.282-1.08,0.424-2.533,0.424-4.36
		c0-1.543-0.103-2.836-0.309-3.878c-0.206-1.042-0.521-1.891-0.945-2.547c-0.425-0.656-0.959-1.125-1.602-1.408
		c-0.644-0.283-1.402-0.424-2.276-0.424c-0.875,0-1.634,0.142-2.276,0.424c-0.644,0.283-1.178,0.752-1.602,1.408
		c-0.425,0.656-0.74,1.505-0.945,2.547C1588.775,92.328,1588.673,93.621,1588.673,95.164z"/>
</g>
<line fill="#FFFFFF" stroke="#FFFFFF" stroke-width="2" stroke-miterlimit="10" x1="1584.985" y1="106" x2="1601.985" y2="106"/>
<g>
	<path fill="#FFFFFF" d="M1771.785-37.445c-8.938,16.791-18.399,28.994-28.378,36.608c-9.984,7.621-22.574,11.428-37.769,11.428
		c-14.901,0-35.305-4.128-61.225-12.396l-12.506,87.736c11.284-12.312,21.905-20.459,31.855-24.436s23.092-5.968,39.431-5.968
		c20.487,0,38.084,8.202,52.789,24.599c14.705,16.403,22.059,36.22,22.059,59.463c0,18.594-9.539,36.16-28.602,52.684
		c-21.45,18.595-47.971,27.892-79.546,27.892c-18.477,0-34.411-4.775-47.817-14.333c-14.601-10.326-21.897-23.63-21.897-39.9
		c0-9.812,2.702-17.172,8.113-22.081c5.405-4.903,12.018-7.36,19.831-7.36c11.116,0,18.476,3.874,22.086,11.622
		c1.802,3.874,2.702,8.135,2.702,12.784c0,5.169-1.193,8.783-3.575,10.847c-5.963,5.944-12.513,8.91-19.663,8.91
		c-1.787,0-3.428-0.254-4.915-0.774c-1.495-0.515-2.835-1.162-4.022-1.937c-0.601,2.07-0.894,3.486-0.894,4.261
		c0,8.008,4.469,15.495,13.406,22.468c10.426,8.008,23.309,12.009,38.643,12.009c18.238,0,31.777-8.541,40.604-25.628
		c7.946-15.277,11.92-36.638,11.92-64.082c0-26.403-2.884-44.138-8.638-53.199c-5.761-9.062-13.658-13.595-23.692-13.595
		c-19.195,0-35.437,7.027-48.718,21.07c-10.041,10.665-16.095,21.591-18.162,32.776l-5.81-0.775l22.274-149.53
		c16.34,5.684,29.705,9.818,40.102,12.396c15.739,3.874,29.697,5.811,41.875,5.811c10.097,0,18.637-1.356,25.619-4.068
		c6.983-2.711,12.548-7.421,16.71-14.14L1771.785-37.445z"/>
</g>
<g>
	<path d="M1571.096-32.555l-0.826,1.135c-0.67,0.053-1.339,0.183-2.006,0.392c-0.666,0.209-1.35,0.793-2.046,1.751
		c-0.551,0.756-1.005,1.681-1.362,2.77c-0.357,1.09-0.768,2.334-1.231,3.732c-0.465,1.398-1.068,2.908-1.81,4.527
		c-0.744,1.619-1.739,3.288-2.986,5.001c-2.312,3.178-5.156,5.834-8.529,7.969c-3.374,2.136-7.379,3.561-12.015,4.275
		c-4.334,0.627-8.84,0.511-13.52-0.348c-4.677-0.857-9.294-2.944-13.849-6.258c-3.881-2.824-7.085-6.197-9.614-10.12
		c-2.527-3.922-4.256-8.073-5.186-12.452c-0.929-4.378-0.991-8.781-0.184-13.209c0.807-4.426,2.623-8.582,5.449-12.466
		c1.137-1.563,2.302-2.838,3.493-3.822c1.191-0.985,2.33-1.814,3.415-2.491c1.085-0.675,2.077-1.304,2.975-1.886
		c0.897-0.58,1.622-1.25,2.173-2.006c0.733-1.008,1.089-1.849,1.064-2.523c-0.024-0.672-0.115-1.336-0.272-1.992l0.826-1.135
		l15.524,11.296l-0.605,0.832c-2.296-0.977-4.659-1.808-7.088-2.496c-2.429-0.686-4.84-0.936-7.231-0.749
		c-2.393,0.188-4.748,0.924-7.066,2.206c-2.318,1.284-4.523,3.362-6.615,6.237c-1.946,2.674-3.188,5.279-3.729,7.817
		c-0.541,2.539-0.576,4.981-0.107,7.327c0.47,2.349,1.363,4.599,2.684,6.755c1.32,2.158,2.881,4.199,4.684,6.127
		c1.802,1.929,3.731,3.739,5.787,5.426c2.056,1.689,4.042,3.23,5.956,4.623c5.434,3.954,10.248,6.802,14.443,8.542
		c4.194,1.741,7.887,2.597,11.075,2.563c3.19-0.032,5.988-0.831,8.394-2.398c2.406-1.565,4.563-3.661,6.472-6.284
		c2.459-3.379,3.949-6.46,4.471-9.245c0.521-2.782,0.452-5.378-0.209-7.789c-0.661-2.408-1.749-4.666-3.265-6.772
		c-1.515-2.104-3.072-4.125-4.672-6.061l0.605-0.833L1571.096-32.555z"/>
	<path d="M1555.163-64.616c-2.707-4.345-4.377-8.884-5.011-13.618c-0.633-4.732-0.484-9.272,0.443-13.622
		c0.93-4.348,2.552-8.319,4.871-11.913c2.317-3.593,5.117-6.412,8.4-8.457c3.495-2.177,7.378-3.521,11.652-4.035
		c4.272-0.513,8.553-0.219,12.84,0.88c4.285,1.101,8.36,3.011,12.224,5.731c3.862,2.722,7.148,6.255,9.854,10.6
		c2.369,3.803,3.973,7.97,4.811,12.499c0.838,4.53,0.892,8.983,0.163,13.357c-0.729,4.375-2.233,8.479-4.512,12.311
		c-2.28,3.833-5.353,6.954-9.217,9.36c-3.971,2.474-8.176,3.924-12.612,4.351c-4.438,0.428-8.758,0.009-12.963-1.256
		c-4.205-1.264-8.138-3.3-11.799-6.11C1560.647-57.344,1557.599-60.705,1555.163-64.616z M1564.296-70.306
		c3.046,4.889,6.021,8.957,8.923,12.199c2.902,3.244,5.855,5.626,8.861,7.147c3.005,1.521,6.045,2.155,9.119,1.897
		c3.074-0.255,6.331-1.456,9.773-3.6c3.388-2.11,5.888-4.497,7.5-7.16c1.611-2.662,2.396-5.678,2.356-9.046
		c-0.041-3.367-0.876-7.069-2.508-11.105c-1.632-4.034-3.971-8.498-7.017-13.386c-2.335-3.749-4.832-7.226-7.491-10.433
		s-5.518-5.761-8.577-7.664c-3.058-1.901-6.301-2.917-9.725-3.047c-3.425-0.128-7.069,1.011-10.934,3.418
		c-3.865,2.408-6.495,5.177-7.889,8.307c-1.395,3.131-1.91,6.489-1.552,10.072c0.358,3.584,1.391,7.277,3.097,11.077
		C1559.94-77.828,1561.961-74.054,1564.296-70.306z"/>
	<path d="M1627.836-71.695l10.261-1.609l-10.173-64.871l-10.261,1.609l-0.208-1.328l29.765-4.668l0.208,1.328l-10.261,1.609
		l4.863,31.013l30.782-4.827l-4.864-31.013l-10.26,1.609l-0.209-1.328l29.765-4.668l0.208,1.328l-10.26,1.609l10.173,64.871
		l10.261-1.609l0.208,1.328l-29.765,4.668l-0.208-1.328l10.261-1.609l-5.102-32.531l-30.781,4.828l5.102,32.53l10.26-1.609
		l0.209,1.328l-29.765,4.667L1627.836-71.695z"/>
	<path d="M1707.83-113.9c1.279-4.957,3.414-9.297,6.404-13.021c2.99-3.722,6.38-6.747,10.17-9.074
		c3.789-2.326,7.783-3.89,11.984-4.689c4.2-0.8,8.173-0.716,11.918,0.25c3.986,1.029,7.639,2.914,10.958,5.654
		c3.318,2.74,6.058,6.042,8.218,9.904c2.159,3.863,3.587,8.131,4.281,12.804c0.692,4.674,0.401,9.49-0.879,14.447
		c-1.119,4.338-3.03,8.373-5.732,12.103c-2.703,3.732-5.89,6.842-9.56,9.331c-3.672,2.49-7.68,4.231-12.026,5.224
		c-4.348,0.992-8.727,0.92-13.135-0.217c-4.529-1.169-8.479-3.215-11.849-6.132c-3.37-2.918-6.047-6.335-8.032-10.252
		c-1.984-3.916-3.223-8.169-3.713-12.757C1706.346-104.913,1706.677-109.438,1707.83-113.9z M1718.248-111.21
		c-1.439,5.577-2.333,10.536-2.68,14.874c-0.347,4.34-0.035,8.121,0.937,11.346c0.971,3.225,2.609,5.863,4.916,7.912
		c2.305,2.05,5.42,3.581,9.347,4.594c3.865,0.997,7.317,1.162,10.358,0.492c3.038-0.669,5.764-2.181,8.176-4.533
		c2.409-2.352,4.514-5.51,6.311-9.475c1.796-3.964,3.415-8.736,4.854-14.313c1.104-4.275,1.899-8.482,2.388-12.62
		s0.365-7.969-0.366-11.496c-0.733-3.526-2.233-6.575-4.501-9.143c-2.27-2.569-5.608-4.422-10.017-5.56
		c-4.409-1.138-8.228-1.132-11.455,0.018c-3.229,1.149-6.017,3.092-8.364,5.822c-2.348,2.732-4.31,6.026-5.885,9.883
		C1720.691-119.553,1719.351-115.486,1718.248-111.21z"/>
	<path d="M1762.904-65.267l8.393,6.119l38.684-53.06l-8.393-6.119l0.792-1.086l14.365,10.473c0.604,0.441,1.219,0.87,1.843,1.284
		c0.623,0.416,1.257,0.817,1.899,1.207c0.604,0.441,1.219,0.87,1.843,1.284c0.623,0.416,1.238,0.843,1.843,1.284
		c2.974,2.168,5.472,4.248,7.495,6.237c2.022,1.991,3.433,4.504,4.23,7.54c0.746,2.682,0.843,5.169,0.293,7.46
		c-0.553,2.291-1.393,4.212-2.523,5.764c-0.565,0.776-1.432,1.67-2.593,2.684c-1.164,1.013-2.674,1.813-4.529,2.4
		c-1.857,0.587-4.054,0.769-6.59,0.542c-2.538-0.226-5.401-1.224-8.587-2.993l-0.113,0.155c0.729,0.691,1.685,1.685,2.865,2.979
		c1.178,1.295,2.24,2.803,3.188,4.522c0.946,1.72,1.619,3.577,2.019,5.57c0.398,1.995,0.208,4.054-0.568,6.18
		c-0.452,1.255-1.096,2.587-1.931,3.998c-0.836,1.41-1.725,2.842-2.667,4.293c-0.942,1.452-1.848,2.852-2.714,4.199
		c-0.867,1.349-1.521,2.535-1.959,3.562c-0.679,1.566-1.086,3.129-1.222,4.693c-0.138,1.563,0.525,2.878,1.987,3.944
		c0.654,0.477,1.429,0.845,2.324,1.1c0.894,0.256,1.824,0.302,2.795,0.137l0.059,1.349c-0.404,0.023-0.854,0.031-1.351,0.025
		c-0.498-0.006-1.074-0.089-1.728-0.25c-0.655-0.162-1.396-0.443-2.221-0.846c-0.824-0.405-1.767-0.991-2.825-1.763
		c-2.017-1.47-3.504-2.952-4.462-4.441c-0.96-1.49-1.475-3.035-1.545-4.631c-0.072-1.597,0.241-3.27,0.938-5.019
		s1.686-3.661,2.967-5.737l4.617-7.445c1.684-2.733,2.649-5.118,2.899-7.153c0.248-2.036,0.076-3.785-0.517-5.248
		c-0.595-1.462-1.423-2.681-2.487-3.655c-1.066-0.974-2.026-1.774-2.883-2.399l-7.562-5.512l-20.416,28.004l8.393,6.118
		l-0.792,1.086l-24.345-17.749L1762.904-65.267z M1800.065-82.726l6.956,5.071c1.41,1.028,2.827,1.785,4.252,2.268
		c1.422,0.484,2.88,0.576,4.372,0.277c1.49-0.298,3.029-1.059,4.614-2.279s3.244-3.02,4.979-5.399
		c1.96-2.688,3.194-5.096,3.701-7.221c0.508-2.125,0.521-3.997,0.04-5.614c-0.481-1.617-1.295-3.042-2.441-4.275
		c-1.147-1.232-2.376-2.326-3.687-3.282c-0.907-0.661-1.837-1.319-2.788-1.973c-0.952-0.654-1.793-1.168-2.522-1.542
		L1800.065-82.726z"/>
	<path d="M1817.22-20.849l6.03,8.456l53.463-38.125l-3.151-4.418c-0.725-1.016-1.631-2.094-2.718-3.233
		c-1.089-1.139-2.512-2.059-4.268-2.76c-1.758-0.7-3.961-1.007-6.609-0.918c-2.649,0.088-5.871,0.834-9.664,2.238l-0.598-0.838
		l14.303-10.2l33.03,46.317l-14.304,10.2l-0.598-0.838c2.562-3.13,4.317-5.934,5.265-8.408c0.946-2.476,1.375-4.658,1.285-6.548
		c-0.091-1.889-0.498-3.535-1.22-4.934c-0.724-1.4-1.446-2.608-2.171-3.623l-3.15-4.418l-53.463,38.125l6.03,8.456l-1.094,0.78
		l-17.493-24.53L1817.22-20.849z"/>
</g>
<path fill="none" stroke="#000000" stroke-width="5" stroke-miterlimit="10" d="M1487.729-5.413
	c-13.316,28.54-20.753,60.375-20.753,93.947c0,122.854,99.593,222.447,222.447,222.447s222.447-99.593,222.447-222.447
	c0-32.633-7.027-63.625-19.65-91.545"/>
<path fill="none" stroke="#000000" stroke-width="5" stroke-miterlimit="10" d="M1527.506,25.121
	c-9.044,21.191-14.05,44.519-14.05,69.016c0,97.184,78.783,175.967,175.967,175.967c97.184,0,175.967-78.783,175.967-175.967
	c0-27.374-6.251-53.289-17.403-76.394"/>
<polygon fill="#3FA9F5" points="1569.434,240.095 1572.96,247.24 1580.844,248.386 1575.139,253.947 1576.486,261.8 
	1569.434,258.092 1562.381,261.8 1563.728,253.947 1558.023,248.386 1565.908,247.24 "/>
<polygon fill="#3FA9F5" points="1609.453,263.281 1612.979,270.426 1620.864,271.571 1615.158,277.133 1616.505,284.986 
	1609.453,281.278 1602.401,284.986 1603.748,277.133 1598.042,271.571 1605.927,270.426 "/>
<polygon fill="#3FA9F5" points="1649.472,277.751 1652.998,284.896 1660.883,286.042 1655.178,291.603 1656.524,299.456 
	1649.472,295.748 1642.42,299.456 1643.767,291.603 1638.062,286.042 1645.946,284.896 "/>
<polygon fill="#3FA9F5" points="1689.491,280.486 1693.018,287.631 1700.902,288.777 1695.197,294.338 1696.544,302.191 
	1689.491,298.483 1682.439,302.191 1683.786,294.338 1678.081,288.777 1685.965,287.631 "/>
<polygon fill="#3FA9F5" points="1729.511,277.751 1733.037,284.896 1740.921,286.042 1735.216,291.603 1736.563,299.456 
	1729.511,295.748 1722.458,299.456 1723.805,291.603 1718.1,286.042 1725.985,284.896 "/>
<polygon fill="#3FA9F5" points="1769.53,263.281 1773.056,270.426 1780.941,271.571 1775.235,277.133 1776.582,284.986 
	1769.53,281.278 1762.478,284.986 1763.825,277.133 1758.119,271.571 1766.004,270.426 "/>
<polygon fill="#3FA9F5" points="1809.549,240.095 1813.075,247.24 1820.96,248.386 1815.255,253.947 1816.601,261.8 
	1809.549,258.092 1802.497,261.8 1803.844,253.947 1798.138,248.386 1806.023,247.24 "/>
</svg>
